<?xml version="1.0" encoding="utf-8"?>
<!-- Generator: Adobe Illustrator 27.5.0, SVG Export Plug-In . SVG Version: 6.00 Build 0)  -->
<svg version="1.1" xmlns="http://www.w3.org/2000/svg" xmlns:xlink="http://www.w3.org/1999/xlink" x="0px" y="0px"
	 viewBox="0 0 4000 4000" style="enable-background:new 0 0 4000 4000;" xml:space="preserve">
<g id="Background">
	<g>
		<rect style="fill:#FFB6E9;" width="4000" height="4000"/>
	</g>
</g>
<g id="Cute_Handphone_Calling">
	<g>
		<ellipse style="fill:#E565C4;" cx="2039.366" cy="3689.051" rx="813.165" ry="74.269"/>
	</g>
	<g>
		<g>
			<g>
				<g>
					<path style="fill:#10AFFF;" d="M1904.603,3106.51c-32.188,136.18-13.325,323.023-13.325,323.023h-220.745
						c0,0-30.672-175.987,18.467-320.738L1904.603,3106.51z"/>
				</g>
				<g>
					<path style="fill:#006CED;" d="M1904.603,3106.51L1689,3108.796c-12.841,37.828-20.225,77.786-24.137,116.182h149.81
						c0,0-15.385,117.782-5.301,204.556h81.906C1891.279,3429.534,1872.415,3242.69,1904.603,3106.51z"/>
				</g>
				<g style="opacity:0.5;">
					<path style="fill:#FFFFFF;" d="M1728.901,3108.796l175.605-1.862c0.033-0.14,0.064-0.284,0.097-0.424L1689,3108.796
						c-49.139,144.751-18.467,320.738-18.467,320.738h39.9C1710.433,3429.534,1679.761,3253.547,1728.901,3108.796z"/>
				</g>
				<g>
					<path style="fill:#260063;" d="M1891.279,3445.535H1657.08l-2.31-13.252c-1.282-7.354-30.801-181.699,19.08-328.628
						c2.842-8.374,11.919-12.842,20.295-10.01c8.367,2.842,12.847,11.929,10.007,20.293c-39.6,116.646-25.54,256.519-19.802,299.595
						h189.49c-3.867-50.215-11.814-196.45,15.19-310.703c2.036-8.599,10.679-13.926,19.25-11.89
						c8.601,2.031,13.923,10.654,11.892,19.253c-31.182,131.919-13.162,315.894-12.974,317.734l1.772,17.603L1891.279,3445.535z"/>
				</g>
			</g>
			<g>
				<g>
					<path style="fill:#FF57D4;" d="M1628.061,3506.48c0,0-47.215-76.588,8.952-116.658c46.854-33.426,239.41-29.141,289.406,11.428
						c40.5,32.862,15.713,89.422-2,95.707l-61.71,23.236L1628.061,3506.48z"/>
				</g>
				<g style="opacity:0.5;">
					<path style="fill:#FFFFFF;" d="M1637.012,3418.712c46.853-33.426,239.41-29.141,289.406,11.428
						c11.378,9.232,17.602,20.335,20.278,31.668c4.228-19.596,0.953-43.33-20.278-60.558
						c-49.996-40.568-242.552-44.854-289.406-11.427c-26.504,18.907-29.98,45.942-26.267,69.228
						C1613.477,3444.387,1621.078,3430.08,1637.012,3418.712z"/>
				</g>
				<g>
					<path style="fill:#CC008E;" d="M1649.544,3478.178c0,0-10.825-32.36,0.031-46.073c80.28,19.427,242.267-14.856,265.408,11.729
						c17.511,20.117-13.428,39.409-13.428,39.409s-167.225-4.952-168.368-4.19"/>
				</g>
				<g>
					<path style="fill:#2A0E54;" d="M1862.712,3536.199c-6.47,0-12.561-3.955-14.976-10.366c-3.115-8.271,1.064-17.5,9.333-20.615
						l61.709-23.237c3.015-1.616,11.741-13.374,13.306-30.088c1.011-10.786-0.903-26.172-15.75-38.223
						c-45.876-37.231-230.334-39.146-270.032-10.825c-43.213,30.83-6.201,92.656-4.604,95.273
						c4.597,7.529,2.239,17.373-5.281,21.987c-7.524,4.614-17.346,2.28-21.978-5.225c-19.045-30.898-40.781-99.517,13.279-138.086
						c55.547-39.629,254.67-31.88,308.779,12.026c21.79,17.686,31.47,44.18,26.565,72.695
						c-4.177,24.272-17.869,45.044-33.296,50.518l-61.418,23.135C1866.492,3535.867,1864.585,3536.199,1862.712,3536.199z"/>
				</g>
			</g>
			<g>
				<g>
					<path style="fill:#FF57D4;" d="M1971.653,3626.09c-5.221,39.984-31.233,59.424-91.422,59.424s-258.647,0-295.787,0
						c-56.953,0-78.166-39.893-78.28-73.899c-0.199-59.424,54.282-106.087,113.134-126.657
						c58.853-20.57,260.171-14.285,305.12,11.999C1969.272,3546.667,1975.272,3598.378,1971.653,3626.09z"/>
				</g>
				<g>
					<path style="fill:#CC008E;" d="M1835.501,3477.298c11.523,21.163,33.222,68.417,27.581,95.844
						c-7.428,36.114-162.273,35.807-212.936,35.807s-78.09-6.476-78.09-6.476s-11.463,76.804,103.902,83.042
						c72.888,0,166.212,0,204.273,0c60.189,0,86.201-19.44,91.422-59.424c3.619-27.712-2.381-79.422-47.235-129.133
						C1909.062,3487.978,1875.444,3481.336,1835.501,3477.298z"/>
				</g>
				<g style="opacity:0.5;">
					<path style="fill:#FFFFFF;" d="M1924.404,3496.97c-28.869-16.919-122.414-25.558-201.144-24.125
						c-43.774,0.85-82.982,4.79-103.974,12.129c-21.036,7.341-41.536,18.038-59.171,31.51
						c-31.645,24.08-54.069,56.977-53.934,95.112c0.09,29.943,16.516,64.363,59.215,72.24
						c-18.664-13.517-26.362-35.27-26.452-54.874c-0.09-29.316,14.278-55.277,35.941-75.911
						c18.485,11.279,50.219,14.278,83.878,6.043c41.804-10.25,72.956-34.509,76.85-57.739c73.091-1.611,161.22,6.311,188.21,22.111
						c41.267,45.743,46.817,93.322,43.46,118.789c-0.134,1.164-0.358,2.194-0.537,3.313c2.327-5.864,3.984-12.309,4.923-19.47
						C1975.25,3598.393,1969.252,3546.652,1924.404,3496.97z"/>
				</g>
				<g>
					<path style="fill:#2A0E54;" d="M1880.232,3701.516h-295.786c-64.919,0-94.131-45.127-94.282-89.849
						c-0.242-72.632,66.57-121.787,123.857-141.812c60.52-21.157,267.49-16.523,318.474,13.286l2.141,1.255l1.663,1.841
						c56.538,62.661,53.499,124.473,51.218,141.924l0,0C1978.933,3693.914,1922.178,3701.516,1880.232,3701.516z M1739.263,3488.733
						c-47.966,0-92.419,3.545-114.685,11.328c-51.101,17.861-102.588,59.268-102.412,111.499c0.032,9.678,3.188,57.954,62.28,57.954
						h295.786c64.233,0,72.681-23.481,75.557-45.493l0,0c3.711-28.438-5.315-73.184-41.479-114.36
						C1888.257,3496.443,1809.949,3488.733,1739.263,3488.733z M1971.653,3626.092h0.049H1971.653z"/>
				</g>
			</g>
		</g>
		<g>
			<g>
				<g>
					<path style="fill:#10AFFF;" d="M2435.229,3126.699c-16.38,149.703,13.713,302.834,13.713,302.834h-229.697
						c0,0-38.092-178.272,18.284-323.023L2435.229,3126.699z"/>
				</g>
				<g>
					<path style="fill:#006CED;" d="M2435.229,3126.699l-197.699-20.189c-14.974,38.448-23.283,79.259-27.412,118.468h145.118
						c0,0-14.885,112.074-7.64,204.556h101.348C2448.943,3429.534,2418.85,3276.402,2435.229,3126.699z"/>
				</g>
				<g style="opacity:0.5;">
					<path style="fill:#FFFFFF;" d="M2275.491,3110.387l-37.961-3.876c-56.376,144.751-18.284,323.023-18.284,323.023h39.426
						C2258.671,3429.534,2221.27,3254.425,2275.491,3110.387z"/>
				</g>
				<g>
					<path style="fill:#260063;" d="M2448.943,3445.535h-242.639l-2.705-12.656c-1.597-7.471-38.433-184.653,19.021-332.173
						c3.206-8.237,12.493-12.329,20.715-9.102c8.235,3.203,12.31,12.48,9.104,20.713c-45.554,116.963-27.014,258.662-19.866,301.216
						h197.312c-7.505-46.025-23.811-167.461-10.562-288.569c0.962-8.784,8.877-15.2,17.646-14.165
						c8.784,0.957,15.125,8.857,14.165,17.642c-15.911,145.41,13.213,296.504,13.508,298.013l3.743,19.077L2448.943,3445.535z"/>
				</g>
			</g>
			<g>
				<g>
					<path style="fill:#FF57D4;" d="M2185.725,3506.48c0,0-47.215-76.588,8.952-116.658c46.854-33.426,239.41-29.141,289.406,11.428
						c40.5,32.862,15.713,89.422-2,95.707l-61.71,23.236L2185.725,3506.48z"/>
				</g>
				<g style="opacity:0.5;">
					<path style="fill:#FFFFFF;" d="M2484.083,3401.25c-49.996-40.568-242.553-44.854-289.407-11.427
						c-56.167,40.07-8.952,116.657-8.952,116.657l1.617,0.095c-9.461-24.385-17.983-61.262,17.99-86.925
						c4.654-3.32,10.886-6.227,18.245-8.767c7.771,8.971,28.732,14.204,52.823,12.219c27.217-2.244,48.945-12.924,51.767-24.712
						c61.773,0.474,127.236,11.249,152.996,32.152c15.522,12.595,20.971,24.366,20.853,39.681
						C2509.172,3449.4,2508.467,3421.036,2484.083,3401.25z"/>
				</g>
				<g>
					<path style="fill:#CC008E;" d="M2224.96,3480.958c-27.807-12.761-22.884-47.996-22.884-47.996s18.87,4.226,64.881,4.063
						c99.135-0.349,182.781-15.158,203.127-3.111c14.475,8.571-6.095,51.234-6.095,51.234l-154.464,2.667"/>
				</g>
				<g>
					<path style="fill:#2A0E54;" d="M2420.376,3536.199c-6.47,0-12.561-3.955-14.976-10.366c-3.115-8.271,1.064-17.5,9.333-20.615
						l61.709-23.237c3.015-1.616,11.741-13.374,13.306-30.088c1.011-10.786-0.903-26.172-15.75-38.223
						c-45.876-37.222-230.334-39.141-270.032-10.82c-43.213,30.825-6.201,92.651-4.604,95.269
						c4.597,7.529,2.239,17.373-5.283,21.987s-17.344,2.28-21.975-5.229c-19.045-30.894-40.779-99.512,13.279-138.081
						c55.557-39.634,254.673-31.875,308.779,12.026c21.79,17.686,31.47,44.18,26.565,72.695
						c-4.177,24.272-17.869,45.044-33.296,50.518l-61.418,23.135C2424.155,3535.867,2422.249,3536.199,2420.376,3536.199z"/>
				</g>
			</g>
			<g>
				<g>
					<path style="fill:#FF57D4;" d="M2529.317,3626.09c-5.221,39.984-31.233,59.424-91.422,59.424c-60.188,0-258.647,0-295.787,0
						c-56.953,0-78.166-39.893-78.28-73.899c-0.199-59.424,54.281-106.087,113.134-126.657
						c58.853-20.57,260.171-14.285,305.12,11.999C2526.937,3546.667,2532.936,3598.378,2529.317,3626.09z"/>
				</g>
				<g>
					<path style="fill:#FF57D4;" d="M2529.317,3626.09c-5.221,39.984-31.233,59.424-91.422,59.424c-60.188,0-258.647,0-295.787,0
						c-56.953,0-78.166-39.893-78.28-73.899c-0.199-59.424,54.281-106.087,113.134-126.657
						c58.853-20.57,260.171-14.285,305.12,11.999C2526.937,3546.667,2532.936,3598.378,2529.317,3626.09z"/>
				</g>
				<g>
					<path style="fill:#CC008E;" d="M2529.317,3626.09c3.619-27.712-2.38-79.422-47.234-129.133
						c-16.824-9.838-55.558-16.873-100.526-20.747c12.734,30.588,26.839,75.715,13.676,102.91
						c-12.71,26.255-75.715,34.019-143.52,34.019c-78.75,0-128.461-20.189-128.461-20.189c-6.856,45.711,16.57,92.564,89.708,92.564
						c0.019,0,0.041,0,0.061,0c74.822,0,183.114,0,224.875,0C2498.084,3685.514,2524.096,3666.074,2529.317,3626.09z"/>
				</g>
				<g style="opacity:0.5;">
					<path style="fill:#FFFFFF;" d="M2482.095,3496.97c-36.97-21.618-179.437-29.72-261.703-20.499
						c-17.903,2.014-32.943,4.834-43.416,8.504c-22.021,7.654-43.371,19.022-61.543,33.301
						c-30.391,23.901-51.741,56.127-51.606,93.322c0.089,22.021,9.085,46.459,30.793,60.961
						c-5.147-10.742-7.519-22.469-7.564-33.569c-0.09-31.734,15.576-59.752,39.208-81.953c16.292,8.191,42.968,9.712,71.166,2.461
						c40.238-10.294,69.197-34.688,67.093-55.724c82.312-5.506,201.593,2.865,234.714,22.2c5.595,6.177,10.518,12.398,14.949,18.62
						C2506.847,3529.062,2496.463,3512.904,2482.095,3496.97z"/>
				</g>
				<g>
					<path style="fill:#2A0E54;" d="M2437.896,3701.516h-295.786c-64.919,0-94.131-45.127-94.282-89.849
						c-0.242-72.632,66.57-121.787,123.857-141.812c60.52-21.157,267.49-16.523,318.474,13.286l2.141,1.255l1.663,1.841
						c56.538,62.661,53.499,124.468,51.218,141.924l0,0C2536.597,3693.914,2479.841,3701.516,2437.896,3701.516z M2296.926,3488.733
						c-47.966,0-92.419,3.545-114.685,11.328c-51.101,17.861-102.588,59.268-102.412,111.499c0.032,9.678,3.188,57.954,62.28,57.954
						h295.786c64.236,0,72.681-23.481,75.557-45.493l0,0c3.713-28.433-5.313-73.179-41.479-114.36
						C2445.92,3496.443,2367.612,3488.733,2296.926,3488.733z"/>
				</g>
			</g>
		</g>
		<g>
			<g>
				<g>
					<path style="fill:#10AFFF;" d="M1279.889,1939.933c0,0-114.277,110.849-269.694,83.327
						c-147.239-26.073-230.078-182.938-228.554-335.462l233.323,75.484c0,0,11.898,77.499,75.225,69.802
						c103.421-12.57,183.605-145.286,183.605-145.286L1279.889,1939.933z"/>
				</g>
				<g>
					<path style="fill:#006CED;" d="M1273.795,1687.798c0,0-23.375,38.638-61.12,76.194l-8.208,143.371
						c0,0-52.568,59.424-150.846,52.568c-98.278-6.856-140.942-94.469-140.942-94.469s89.156-1.051,134.454-43.229
						c-26.147-19.903-32.168-58.952-32.168-58.952l-233.323-75.484c-1.523,152.523,81.315,309.389,228.554,335.462
						c155.417,27.522,269.693-83.327,269.693-83.327L1273.795,1687.798z"/>
				</g>
				<g style="opacity:0.5;">
					<path style="fill:#FFFFFF;" d="M1273.795,1687.798c0,0-80.184,132.716-183.605,145.286
						c-63.327,7.697-75.225-69.802-75.225-69.802l-50.615-16.375c36.672,98.213,74.387,130.981,130.088,126.173
						c84.371-7.281,149.823-80.204,180.881-122.196L1273.795,1687.798z"/>
				</g>
				<g>
					<path style="fill:#260063;" d="M1060.618,2043.706c-17.1,0-34.866-1.443-53.213-4.692
						c-160.74-28.464-243.291-198.311-241.763-351.375l0.217-21.763l263.42,85.22l1.499,9.756
						c0.398,2.495,10.452,62.031,57.48,56.348c94.592-11.497,171.079-136.416,171.841-137.676c4.57-7.563,14.404-9.993,21.968-5.42
						c7.563,4.568,9.99,14.404,5.42,21.968c-3.438,5.691-85.476,139.539-195.366,152.896c-56.294,6.782-82.747-40.466-90.957-73.333
						l-203.132-65.718c6.077,133.423,79.209,273.55,214.954,297.588c145.183,25.718,254.69-78.02,255.779-79.072
						c6.357-6.135,16.479-5.967,22.617,0.383c6.138,6.345,5.984,16.453-0.352,22.6
						C1286.682,1955.635,1194.155,2043.706,1060.618,2043.706z"/>
				</g>
			</g>
			<g>
				<g>
					<path style="fill:#FFFFFF;" d="M845.636,1549.106c0,0-83.422,0-94.85,74.28c-13.976,90.841,91.195,209.434,215.222,202.842
						c114.658-6.095,105.516-101.707,84.565-143.989C1029.623,1639.956,845.636,1549.106,845.636,1549.106z"/>
				</g>
				<g>
					<path style="fill:#A6BFFF;" d="M806.211,1589.674c6.923,128.276,100.678,170.011,100.678,170.011l-6.971,28.259
						c0,0,73.098,20.265,114.848-8.285c38.854-26.569,15.988-66.566,15.988-66.566l-120.552-79.613L806.211,1589.674z"/>
				</g>
				<g>
					<path style="fill:#260063;" d="M956.426,1842.481c-61.777,0-124.38-28.833-169.285-78.445
						c-39.702-43.865-59.204-97.354-52.168-143.081c10.691-69.487,77.063-87.849,110.664-87.849h3.735l3.35,1.655
						c31.533,15.571,189.961,95.518,212.187,140.374c15.813,31.914,22.253,80.393,1.001,116.765
						c-12.393,21.206-39.636,47.146-99.053,50.305C963.386,1842.39,959.907,1842.481,956.426,1842.481z M842.188,1565.254
						c-14.399,0.957-67.507,8.047-75.588,60.566c-5.583,36.304,10.964,79.946,44.268,116.741
						c41.035,45.339,98.726,70.596,154.292,67.691c36.272-1.929,60.874-13.535,73.123-34.497
						c15.159-25.942,9.565-62.979-2.043-86.411C1023.65,1663.941,916.482,1602.219,842.188,1565.254z"/>
				</g>
			</g>
			<g>
				<g>
					<path style="fill:#FFFFFF;" d="M1055.335,1717.664c0,0-52.205,46.879-126.276,20.57
						c-69.709-24.76-106.755-118.007-113.706-161.13c-9.333-57.9,13.142-116.563,23.427-137.132
						c10.285-20.57,117.705-166.844,140.561-173.13c22.855-6.285,50.282,33.712,45.139,65.709
						c-5.142,31.998-33.712,64.567-33.712,64.567s64.376-8.571,100.945,39.426c27.942,36.674,43.044,118.086,39.997,159.226
						c-1.408,19.009-12.19,37.711-12.19,37.711s70.09,19.808,70.09,62.852C1189.61,1733.936,1137.043,1757.28,1055.335,1717.664z"/>
				</g>
				<g>
					<path style="fill:#A6BFFF;" d="M895.156,1668.151c102.469,12.563,149.701-50.187,156.56-78.477
						c17.639-72.756-12.189-138.656-12.189-138.656s49.256,19.427,54.911,98.088c5.656,78.661-16.438,108.373-16.438,108.373
						s16.438,30.32,73.137,42.282c-0.84,27.182-98.031-11.963-98.031-11.963C1014.374,1711.839,941.629,1729.663,895.156,1668.151z"
						/>
				</g>
				<g>
					<path style="fill:#260063;" d="M974.485,1762.324c-15.505,0-32.539-2.532-50.781-9.011
						c-74.304-26.394-115.581-120.527-124.146-173.662c-11.492-71.292,21.15-139.312,24.91-146.833
						c6.27-12.537,117.322-172.241,150.63-181.404c12.871-3.54,26.66,0.525,38.838,11.443
						c16.484,14.778,30.825,44.336,26.343,72.234c-2.715,16.882-10.796,33.516-18.765,46.594
						c24.91,3.088,58.816,13.516,82.927,45.161c31.526,41.379,46.421,126.963,43.225,170.105
						c-0.742,10.007-3.494,19.653-6.394,27.407c24.043,10.11,64.338,32.888,64.338,71.975c0,18.772-9.539,35.515-26.167,45.932
						c-28.765,18.02-72.878,15.752-122.08-6.028C1043.518,1745.845,1014.004,1762.324,974.485,1762.324z M984.011,1282.195
						c-21.255,11.602-120.271,143.633-130.92,164.932c-11.931,23.867-29.978,77.566-21.941,127.432
						c5.994,37.19,40.32,126.24,103.264,148.599c63.733,22.646,108.415-15.801,110.288-17.449l7.981-7.029l9.631,4.587
						c49.502,23.999,84.192,21.87,100.139,11.882c7.402-4.639,11.155-10.969,11.155-18.816c0-25.098-43.296-43.127-58.462-47.464
						l-19.692-5.632l10.205-17.749c0.071-0.125,8.984-15.911,10.093-30.901c2.722-36.731-11.516-115.208-36.765-148.347
						c-30.313-39.785-85.598-33.32-86.162-33.257l-41.829,5.269l27.744-31.687c0.244-0.278,25.61-29.597,29.941-56.553
						c2.507-15.596-6.409-34.634-16.106-43.328C988.855,1283.35,985.718,1282.093,984.011,1282.195z"/>
				</g>
				<g>
					<path style="fill:#260063;" d="M1067.08,1664.861l43.342-44.543c19.214-17.374,41.247,14.476,18.196,26.326
						c0,0-56.99,24.8-56.99,24.8C1067.623,1673.255,1063.982,1667.925,1067.08,1664.861L1067.08,1664.861z"/>
				</g>
				<g>
					<path style="fill:#260063;" d="M908.818,1423.076l76.413-40.972c22.077-10.331,34.6,23.527,11.072,30.025
						c0,0-84.716,18.452-84.716,18.452C907.105,1431.608,904.751,1425.186,908.818,1423.076L908.818,1423.076z"/>
				</g>
			</g>
		</g>
		<g>
			<g>
				<g>
					<path style="fill:#10AFFF;" d="M1226.202,3027.791l6.748-2296.678c0.25-84.9,69.593-153.353,154.488-152.507l1234.738,12.313
						c83.379,0.832,150.732,68.289,151.433,151.67l19.159,2278.565c0.712,84.704-67.549,153.858-152.255,154.248l-1260.645,5.8
						C1294.939,3181.593,1225.952,3112.72,1226.202,3027.791z"/>
				</g>
				<g>
					<path style="fill:#10AFFF;" d="M1226.202,3027.791l6.748-2296.678c0.25-84.9,69.593-153.353,154.488-152.507l1234.738,12.313
						c83.379,0.832,150.732,68.289,151.433,151.67l19.159,2278.565c0.712,84.704-67.549,153.858-152.255,154.248l-1260.645,5.8
						C1294.939,3181.593,1225.952,3112.72,1226.202,3027.791z"/>
				</g>
				<g>
					<g>
						<polygon style="fill:#43CAFF;" points="1227.051,2738.812 2622.643,2738.812 2622.643,2228.951 1228.549,2228.951 						"/>
					</g>
					<g>
						<polygon style="fill:#43CAFF;" points="1229.891,1772.078 2622.643,1772.078 2622.643,1068.136 1231.959,1068.136 						"/>
					</g>
				</g>
				<g style="opacity:0.5;">
					<path style="fill:#FFFFFF;" d="M2494.583,589.647l-1107.145-11.041c-84.896-0.847-154.239,67.607-154.488,152.507
						l-6.748,2296.677c-0.249,84.93,68.737,153.803,153.667,153.412l132.25-0.608c-181.084-6.46-230.822-65.658-236.801-125.889
						c-20.57-207.222-3.428-2175.453,0-2284.778c3.428-109.325,46.092-143.607,128.371-145.512
						c82.28-1.905,1006.399,3.428,1063.919,11.427s97.516,31.998,110.087,112.753c4.593,29.505,54.151,1952.613,54.151,1952.613
						l-9.776-1960.13C2622.069,741.078,2627.345,645.601,2494.583,589.647z"/>
				</g>
				<g>
					<path style="fill:#006CED;" d="M2573.989,590.919l-91.778-0.915c77.946,6.628,139.19,71.593,139.857,151.074l19.159,2278.564
						c0.69,81.991-63.346,151.479-144.274,156.198l95.373-0.438c84.707-0.39,152.967-69.544,152.255-154.249l-19.158-2278.565
						C2724.721,659.208,2657.369,591.751,2573.989,590.919z"/>
				</g>
				<g>
					<path style="fill:#0040B2;" d="M2488.865,3192.102c-8.801,0-15.957-7.114-15.999-15.928c-0.039-8.838,7.09-16.03,15.928-16.074
						c36.018-0.166,70.068-14.658,95.876-40.806c26.47-26.816,40.872-62.158,40.559-99.517l-19.16-2278.567
						c-0.625-74.143-61.45-135.066-135.593-135.806c-8.838-0.088-15.928-7.322-15.84-16.157s7.205-16.079,16.157-15.84
						c91.467,0.913,166.506,76.069,167.273,167.534l19.16,2278.562c0.388,45.933-17.292,89.355-49.78,122.271
						c-31.831,32.246-73.916,50.122-118.506,50.327C2488.916,3192.102,2488.889,3192.102,2488.865,3192.102z"/>
				</g>
				<g>
					<path style="fill:#260063;" d="M1379.141,3197.205c-45.073,0-87.429-17.52-119.351-49.39
						c-32.112-32.056-49.722-74.697-49.59-120.073l6.748-2296.675c0.134-45.356,17.983-87.886,50.264-119.748
						c32.278-31.865,75.168-49.165,120.386-48.711l1234.736,12.312c91.467,0.913,166.506,76.069,167.273,167.534l19.16,2278.564
						c0.381,45.254-16.917,87.91-48.706,120.117s-74.221,50.059-119.475,50.269l-1260.645,5.801
						C1379.675,3197.205,1379.407,3197.205,1379.141,3197.205z M1226.201,3027.791l16.001,0.049
						c-0.11,36.777,14.167,71.348,40.195,97.329c25.874,25.835,60.215,40.034,96.75,40.039c0.217,0,0.43-0.005,0.647-0.005
						l1260.645-5.801c36.682-0.166,71.077-14.639,96.848-40.747c25.769-26.108,39.79-60.684,39.482-97.363l-19.16-2278.569
						c-0.625-74.143-61.45-135.066-135.593-135.806L1387.28,594.605c-36.743-0.435-71.423,13.657-97.588,39.487
						c-26.167,25.828-40.635,60.303-40.742,97.068l-6.748,2296.68L1226.201,3027.791z"/>
				</g>
			</g>
			<g>
				<g>
					<path style="fill:#FFC200;" d="M1433.43,707.861l999.948,4.944c44.74,0.221,80.993,36.36,81.355,81.099l17.724,2187.519
						c0.368,45.414-36.344,82.425-81.76,82.425H1426.646c-45.249,0-81.893-36.751-81.762-82l6.38-2192.463
						C1351.396,744.163,1388.21,707.637,1433.43,707.861z"/>
				</g>
				<g>
					<path style="fill:#FFDA00;" d="M1531.635,982.609l805.792,4.002c21.651,0.108,39.195,17.597,39.37,39.248l13.854,1717.786
						c0.177,21.977-17.589,39.887-39.567,39.887h-824.632c-21.897,0-39.631-17.785-39.568-39.682l4.987-1721.788
						C1491.934,1000.177,1509.75,982.5,1531.635,982.609z"/>
				</g>
				<g>
					<polygon style="fill:#FFE876;" points="1345.422,2797.19 2524.446,1992.525 2522.95,1807.912 1345.963,2611.185 					"/>
				</g>
				<g>
					<path style="fill:#FFE876;" d="M2526.208,2209.929l-1175.527,802.278c11.999,30.228,41.45,51.641,75.966,51.641h278.414
						l823.512-562.033L2526.208,2209.929z"/>
				</g>
				<g>
					<polygon style="fill:#FFE876;" points="1350.924,906.232 1349.583,1367.076 2309.146,712.19 1640.089,708.883 					"/>
				</g>
				<g>
					<path style="fill:#EA781B;" d="M1405.897,795.114c0.065-22.313,18.229-40.335,40.541-40.224l1060.625,5.244
						c-12.953-27.82-41.021-47.168-73.684-47.329l-999.949-4.944c-45.22-0.223-82.034,36.303-82.166,81.524l-6.38,2192.463
						c-0.104,35.645,22.656,65.931,54.425,77.218L1405.897,795.114z"/>
				</g>
				<g>
					<path style="fill:#FFE876;" d="M2514.734,793.904c-0.296-36.549-24.556-67.333-57.816-77.51l18.178,2243.543
						c0.225,27.692-22.161,50.26-49.854,50.26H1349.95c11.473,31.278,41.426,53.651,76.697,53.651h1024.052
						c45.415,0,82.128-37.011,81.76-82.425L2514.734,793.904z"/>
				</g>
				<g>
					<path style="fill:#260063;" d="M2450.698,3079.846H1426.646c-26.167,0-50.754-10.205-69.229-28.735
						s-28.608-43.145-28.533-69.312l6.379-2192.461c0.078-26.152,10.344-50.698,28.909-69.116
						c18.445-18.301,42.876-28.362,68.838-28.362c0.168,0,0.332,0,0.5,0l999.946,4.944c53.208,0.264,96.846,43.762,97.275,96.97
						l17.725,2187.517c0.215,26.26-9.854,50.991-28.35,69.639S2476.963,3079.846,2450.698,3079.846z M1433.015,723.86
						c-17.466,0-33.896,6.768-46.306,19.077c-12.488,12.39-19.392,28.901-19.443,46.494l-6.379,2192.466
						c-0.051,17.598,6.763,34.155,19.189,46.621c12.429,12.461,28.967,19.326,46.57,19.326h1024.053
						c17.666,0,34.248-6.909,46.692-19.448c12.439-12.544,19.211-29.18,19.07-46.841l-17.725-2187.522
						c-0.291-35.791-29.644-65.051-65.435-65.227l-999.951-4.946C1433.24,723.86,1433.127,723.86,1433.015,723.86z"/>
				</g>
				<g>
					<path style="fill:#2A0E54;" d="M1801.849,769.927h344.544c25.991,0,47.119,20.959,47.328,46.949v0
						c0.212,26.288-21.04,47.711-47.328,47.711h-344.544c-26.139,0-47.33-21.19-47.33-47.33v0
						C1754.52,791.117,1775.71,769.927,1801.849,769.927z"/>
				</g>
			</g>
			<g>
				<g>
					<path style="fill:#260063;" d="M1482.178,1446.211c89.285-87.398,239.151-49.119,258.63,79.676
						c2.585,13.275-13.632,22.909-24.035,14.543c0,0.004-10.334-3.953-10.334-3.952c-57.768-22.079-114.613-21.614-171.096,5.26
						c-3.702,1.854-7.627-2.991-5.041-6.213c39.853-53.611,118.818-60.047,177.172-35.749c9.018,3.691,16.645,7.366,25.166,12.865
						c0,0-23.528,17.473-23.528,17.473c-6.719-22.112-16.611-42.539-31.13-58.674c-48.498-55.413-128.777-43.703-191.384-18.561
						C1482.69,1454.61,1479.057,1449.119,1482.178,1446.211L1482.178,1446.211z"/>
				</g>
				<g>
					<path style="fill:#260063;" d="M1504.336,1185.3c18.057-77.925,101.225-132.089,179.702-123.359
						c26.038,2.724,50.935,10.668,72.151,24.641c2.896,1.909,3.699,5.806,1.79,8.701c-1.184,1.796-3.122,2.782-5.127,2.827
						c-35.848,1.159-66.882,1.601-99.88,9.998c-30.961,7.636-58.628,21.028-85.303,39.58c-17.856,12.341-35.203,27.141-52.615,43.01
						C1510.955,1195.305,1502.995,1191.352,1504.336,1185.3L1504.336,1185.3z"/>
				</g>
				<g>
					<path style="fill:#260063;" d="M2330.786,1190.698c-48.123-45.385-103.116-81.279-169.263-88.49
						c-21.538-2.853-44.072-3.295-68.535-4.098c-3.498-0.063-6.28-2.989-6.162-6.487c0.071-2.104,1.199-3.953,2.825-5.042
						c21.216-13.972,46.111-21.917,72.148-24.641c65.739-7.256,134.445,29.256,165.852,87.257
						c6.202,11.335,11.204,22.975,13.851,36.103c0.679,3.359-1.497,6.631-4.856,7.31
						C2334.391,1193.068,2332.283,1192.234,2330.786,1190.698L2330.786,1190.698z"/>
				</g>
				<g>
					<g>
						
							<ellipse transform="matrix(0.0364 -0.9993 0.9993 0.0364 587.118 3660.7339)" style="fill:#260063;" cx="2191.771" cy="1525.927" rx="149.511" ry="129.123"/>
					</g>
					<g>
						
							<ellipse transform="matrix(0.0364 -0.9993 0.9993 0.0364 594.3806 3592.7212)" style="fill:#FFFFFF;" cx="2160.137" cy="1488.154" rx="47.637" ry="41.141"/>
					</g>
					<g style="opacity:0.4;">
						
							<ellipse transform="matrix(0.0364 -0.9993 0.9993 0.0364 611.0213 3710.3547)" style="fill:#FFFFFF;" cx="2229.435" cy="1538.345" rx="24.913" ry="21.516"/>
					</g>
				</g>
				<g>
					<g>
						<path style="fill:#260063;" d="M1803.383,1574.408c-21.628,68.214-8.368,226.679,109.791,218.108
							c116.346-8.439,117.896-153.322,91.056-216.11C1944.981,1603.335,1867.906,1612.884,1803.383,1574.408z"/>
					</g>
					<g>
						<path style="fill:#FF94B5;" d="M1910.581,1756.801c25.247-1.832,43.382-12.339,55.437-32.127
							c4.506-7.397,7.95-15.664,10.521-24.401c-44.821-6.888-91.029,3.42-126.551,23.912c1.658,2.866,3.397,5.651,5.301,8.251
							c12.287,16.789,27.799,24.604,48.815,24.604C1906.232,1757.042,1908.352,1756.963,1910.581,1756.801z"/>
					</g>
					<g>
						<path style="fill:#FFFFFF;" d="M1993.185,1581.134c-52.459,21.128-116.599,28.135-173.415,1.883
							c-3.766,43.144,30.359,74.077,86.85,74.08C1960.98,1657.101,1991.611,1625.556,1993.185,1581.134z"/>
					</g>
					<g>
						<path style="fill:#260063;" d="M1784.468,1555.879c82.336,41.268,151.116,39.71,235.671,6.437
							c3.927-1.625,7.443,3.829,4.338,6.72c-57.052,58.409-156.223,67.672-221.211,16.91c-8.977-7.135-17.385-14.613-24.224-24.186
							c-1.309-1.833-0.884-4.382,0.947-5.691C1781.369,1555.086,1783.089,1555.101,1784.468,1555.879L1784.468,1555.879z"/>
					</g>
				</g>
				<g>
					<path style="fill:#EA781B;" d="M1849,1520.044c0,0,56.378-36.153,114.672,4.251
						C1934.343,1417.32,1875.167,1440.408,1849,1520.044z"/>
				</g>
			</g>
		</g>
		<g>
			<g>
				<path style="fill:#10AFFF;" d="M2722.065,1729.092c102.087,22.855,201.127,253.695,204.556,337.117
					s-60.567,259.409-60.567,259.409l-199.267-64.979l58.706-200.144c0,0-74.467-168.4-84.26-186.652
					c-9.793-18.253,9.98-89.898,9.98-89.898S2665.212,1735.949,2722.065,1729.092z"/>
			</g>
			<g style="opacity:0.5;">
				<path style="fill:#FFFFFF;" d="M2866.053,2325.617c0,0,63.995-175.986,60.567-259.408
					c-3.428-83.423-102.469-314.262-204.556-337.117c-16.108,1.943-28.771,7.191-38.655,13.712c0.058,0,30.099,0.009,45.275,8.572
					c30.347,17.123,133.179,168.559,157.367,294.834c10.342,53.986-37.071,194.171-63.184,265.325L2866.053,2325.617z"/>
			</g>
			<g>
				<path style="fill:#006CED;" d="M2641.233,1873.843c9.794,18.252,84.26,186.653,84.26,186.653l-58.706,200.144l64.827,21.14
					l47.208-219.76l40.037-38.759l-53.369-16.475l-92.184-162.655l-22.094-60.186
					C2651.213,1783.945,2631.44,1855.59,2641.233,1873.843z"/>
			</g>
			<g>
				<path style="fill:#260063;" d="M2722.939,1725.188c102.398,6.412,197.651,219.75,215.313,309.252
					c9.75,43.698,0.715,90.24-8.116,132.379c-12.678,56.063-29.483,110.233-49.035,164.241c-0.011,0.022-5.25,14.555-5.259,14.58
					c0,0-14.749-4.81-14.749-4.81l-199.268-64.978l-14.763-4.814l4.37-14.902c0.001-0.003,58.704-200.141,58.706-200.144
					l0.72,10.974c-25.263-55.732-49.147-113.511-72.678-170.085c-2.028-4.872-5.37-12.659-7.563-17.471
					c-7.644-19.575-0.614-42.105,4.008-60.943c3.546-12.161,7.599-23.999,12.73-35.586c0.906-2.041,3.293-2.964,5.337-2.058
					c1.666,0.737,2.588,2.466,2.375,4.187c-1.25,12.263-2.732,24.509-3.813,36.602c-1.213,14.787-2.876,28.935-0.708,42.742
					c0.298,0.889,0.435,2.285,0.765,2.749c0.194,0.271,0.421,0.711,0.491,1.045c0,0,0.571,1.06,0.571,1.06
					c2.585,4.608,6.413,12.184,8.872,16.953c27.919,55.221,54.215,111.145,78.882,167.864c0,0,2.336,5.513,2.336,5.513l-1.619,5.464
					c0.003,0.005-58.704,200.137-58.704,200.142l-10.393-19.714l199.265,64.978l-19.995,9.744
					c17.969-52.653,34.64-106.53,47.08-160.532c7.384-33.497,14.286-66.436,12.219-99.692c-2.046-19.915-6.951-39.5-12.715-58.96
					c-27.338-89.551-89.481-224.688-176.41-267.97C2717.075,1731.472,2718.522,1724.825,2722.939,1725.188L2722.939,1725.188z"/>
			</g>
			<g>
				<path style="fill:#FFFFFF;" d="M2648.546,2261.242c0,0-114.323,46.938-147.417,79.613
					c-30.093,29.712-6.857,71.994,40.378,68.185c34.181-2.757,66.446-23.887,88.374-10.285
					c25.331,15.713-2.667,83.708-18.094,122.848c-18.149,46.044-21.014,73.776-1.428,91.136
					c25.141,22.284,73.423,5.714,94.945-30.76l27.281,7.92c0,0,54.78,40.686,106.043,9.412
					c102.087-62.281,27.427-273.693,27.427-273.693L2648.546,2261.242z"/>
			</g>
			<g>
				<path style="fill:#A6BFFF;" d="M2814.629,2565.981c-25.998-15.999,2.285-34.95-6.856-53.33
					c-32.059,10.222-63.154,16.762-80.756-28.188c0,0-24.379,81.137-44.092,102.849c-15.827,17.432-45.932,12.166-52.281-5.333
					c-8.571-23.617,15.713-48.758,32.268-97.516c17.779-52.365,29.823-115.039,0-126.847
					c-29.823-11.809-86.739,24.379-130.449,20.57c-30.27-2.638-37.727-14.216-38.013-29.264
					c-19.132,28.707,3.963,63.594,47.058,60.119c34.18-2.757,66.445-23.887,88.375-10.285
					c25.331,15.712-2.667,83.708-18.095,122.847c-18.148,46.044-21.013,73.776-1.428,91.136
					c25.141,22.284,73.423,5.713,94.945-30.76l27.281,7.92c0,0,54.78,40.686,106.042,9.412
					c26.38-16.093,40.937-42.155,48.051-71.943C2872.521,2542.521,2835.38,2578.751,2814.629,2565.981z"/>
			</g>
			<g>
				<path style="fill:#A6BFFF;" d="M2866.053,2325.617l-217.507-64.375c0,0-10.07,4.138-25.046,10.783
					c27.656,29.692,116.12,111.315,260.316,121.34C2876.129,2354.171,2866.053,2325.617,2866.053,2325.617z"/>
			</g>
			<g>
				<path style="fill:#260063;" d="M2638.943,2638.826c-15.115,0.002-28.745-4.849-39.197-14.111
					c-29.829-26.443-18.997-68.005-2.844-108.979l1.643-4.16c7.844-19.854,17.61-44.561,22.554-66.201
					c5.454-23.882,2.1-31.934,0.349-33.022c-7.708-4.771-21.965-0.686-38.474,4.06c-12.104,3.477-25.823,7.419-40.181,8.577
					c-29.922,2.444-56.04-10.837-66.545-33.762c-9.397-20.508-4.172-44.17,13.64-61.758
					c34.939-34.495,147.795-81.062,152.583-83.027l5.212-2.139l230.74,68.291l2.72,7.698c3.223,9.131,77.693,224.426-34.182,292.681
					c-53.689,32.756-108.806-0.022-121.355-8.438l-13.645-3.96c-15.327,19.7-37.891,33.628-61.284,37.314
					C2646.689,2638.516,2642.769,2638.826,2638.943,2638.826z M2612.603,2378.223c8.882,0,17.534,1.865,25.71,6.936
					c35.82,22.217,9.331,89.238-10.007,138.176l-1.633,4.133c-20.115,51.03-14.626,65.386-5.701,73.298
					c7.451,6.604,17.561,6.641,24.724,5.51c17.876-2.815,35.864-15.544,45.828-32.427l6.311-10.698l41.978,12.185l2.314,1.719
					c1.855,1.355,46.948,33.74,88.169,8.596c79.714-48.633,34.775-209.98,23.159-247.078l-204.006-60.378
					c-34.46,14.482-113.086,50.356-137.08,74.045c-8.22,8.115-10.781,17.466-7.029,25.652c4.836,10.552,18.511,16.519,34.88,15.2
					c11.169-0.901,22.732-4.224,33.916-7.439C2586.938,2381.975,2600.002,2378.223,2612.603,2378.223z"/>
			</g>
			<g>
				<path style="fill:#FFFFFF;" d="M2633.26,2267.74c0,0,142.8,42.165,241.455,86.577c0,0,47.547-29.124,29.903-82.981
					c-16.566-50.567-178.867-96.607-226.836-84.851C2619.501,2200.77,2633.26,2267.74,2633.26,2267.74z"/>
			</g>
			<g>
				<path style="fill:#A6BFFF;" d="M2664.633,2277.375c42.593,13.39,121,39.151,187.275,67.04
					c8.326-11.492,16.99-25.784,17.859-36.51c-27.141-21.142-102.278-63.138-205.413-68.567
					C2663.481,2239.339,2661.456,2258.832,2664.633,2277.375z"/>
			</g>
			<g>
				<path style="fill:#260063;" d="M2875.859,2372.378l-7.712-3.472c-96.504-43.442-238-85.403-239.419-85.823l-9.209-2.72
					l-1.934-9.404c-5.83-28.384-1.548-85.815,56.389-100.015c53.179-13.032,225.403,33.008,245.85,95.41
					c17.068,52.107-16.577,89.248-36.753,101.606L2875.859,2372.378z M2647.817,2255.423
					c33.235,10.144,142.292,44.324,224.844,80.476c10.024-8.711,26.843-28.774,16.753-59.583
					c-12.358-37.725-161.716-85.593-207.822-74.292C2649.365,2209.925,2646.824,2239.8,2647.817,2255.423z"/>
			</g>
			<g>
				<path style="fill:#260063;" d="M2730.996,2484.871c-0.134,34.777-2.322,68.589-10.769,102.913
					c-5.72,20.459-35.954,12.859-31.26-7.906c7.058-15.486,14.739-31.045,20.204-48.105c5.335-15.585,10.042-31.672,13.89-47.815
					C2724.101,2479.41,2731.035,2480.21,2730.996,2484.871L2730.996,2484.871z"/>
			</g>
			<g>
				<path style="fill:#260063;" d="M2811.16,2514.78c-10.937,26.264-26.924,50.399-46.758,70.95
					c-7.031,7.361-14.296,13.801-23.853,18.044c-15.629,6.95-29.651-12.97-18.164-25.32c5.985-6.839,14.598-11.324,22.209-16.406
					c18.231-11.87,35.159-26.106,50.479-41.726c3.219-3.231,6.215-6.666,9.473-9.963
					C2807.504,2507.162,2812.979,2510.869,2811.16,2514.78L2811.16,2514.78z"/>
			</g>
		</g>
		<g>
			<g>
				<path style="fill:#FF57D4;" d="M2731.588,995.815h55.151c9.771,0,17.737,7.834,17.901,17.603l4.542,270.836
					c0.168,10.004-7.896,18.204-17.901,18.204h-59.693c-9.888,0-17.903-8.016-17.903-17.903v-270.836
					C2713.684,1003.83,2721.7,995.815,2731.588,995.815z"/>
			</g>
			<g>
				<path style="fill:#FF57D4;" d="M2731.588,995.815h55.151c9.771,0,17.737,7.834,17.901,17.603l4.542,270.836
					c0.168,10.004-7.896,18.204-17.901,18.204h-59.693c-9.888,0-17.903-8.016-17.903-17.903v-270.836
					C2713.684,1003.83,2721.7,995.815,2731.588,995.815z"/>
			</g>
			<g>
				<path style="fill:#FF57D4;" d="M2731.588,995.815h55.151c9.771,0,17.737,7.834,17.901,17.603l4.542,270.836
					c0.168,10.004-7.896,18.204-17.901,18.204h-59.693c-9.888,0-17.903-8.016-17.903-17.903v-270.836
					C2713.684,1003.83,2721.7,995.815,2731.588,995.815z"/>
			</g>
			<g>
				<path style="fill:#FF8DF2;" d="M2804.64,1013.418c-0.164-9.77-8.131-17.603-17.901-17.603h-25.304v251.981h47.136
					L2804.64,1013.418z"/>
			</g>
			<g>
				<path style="fill:#CC008E;" d="M2750.774,1274.174c-3.232,0-5.852-2.62-5.852-5.853V995.815h-13.334
					c-9.888,0-17.903,8.016-17.903,17.903v270.836c0,9.888,8.015,17.903,17.903,17.903h59.692c10.005,0,18.069-8.2,17.901-18.203
					l-0.169-10.08H2750.774z"/>
			</g>
			<g style="opacity:0.5;">
				<path style="fill:#FFFFFF;" d="M2807.49,1183.001l-1.924-114.358l-0.94-55.232c-0.134-9.757-8.101-17.59-17.903-17.59h-55.142
					c-9.891,0-17.903,8.011-17.903,17.903v4.699h63.736l0.85,51.562c-11.905,9.847-20.186,31.51-20.186,56.575
					c0,26.497,9.22,49.1,22.156,58.052l1.97,117.849h9.085c9.981,0,18.082-8.191,17.903-18.217L2807.49,1183.001z"/>
			</g>
			<g>
				<path style="fill:#260063;" d="M2791.279,1318.46h-59.692c-18.694,0-33.904-15.21-33.904-33.906v-270.835
					c0-18.694,15.21-33.904,33.904-33.904h55.151c18.384,0,33.591,14.956,33.899,33.335l4.543,270.835
					c0.151,9.167-3.303,17.81-9.729,24.343S2800.442,1318.46,2791.279,1318.46z M2731.587,1011.817c-1.05,0-1.902,0.852-1.902,1.902
					v270.835c0,1.05,0.852,1.904,1.902,1.904h59.692c0.53,0,0.986-0.19,1.357-0.569c0.371-0.376,0.557-0.84,0.547-1.37
					l-4.543-270.832c-0.017-1.033-0.869-1.87-1.902-1.87H2731.587z"/>
			</g>
		</g>
		<g>
			<g>
				<path style="fill:#FF57D4;" d="M2731.588,1383.976h55.151c9.771,0,17.737,7.834,17.901,17.603l4.542,270.836
					c0.168,10.004-7.896,18.204-17.901,18.204h-59.693c-9.888,0-17.903-8.016-17.903-17.903v-270.836
					C2713.684,1391.991,2721.7,1383.976,2731.588,1383.976z"/>
			</g>
			<g>
				<path style="fill:#FF57D4;" d="M2731.588,1383.976h55.151c9.771,0,17.737,7.834,17.901,17.603l4.542,270.836
					c0.168,10.004-7.896,18.204-17.901,18.204h-59.693c-9.888,0-17.903-8.016-17.903-17.903v-270.836
					C2713.684,1391.991,2721.7,1383.976,2731.588,1383.976z"/>
			</g>
			<g>
				<path style="fill:#FF57D4;" d="M2731.588,1383.976h55.151c9.771,0,17.737,7.834,17.901,17.603l4.542,270.836
					c0.168,10.004-7.896,18.204-17.901,18.204h-59.693c-9.888,0-17.903-8.016-17.903-17.903v-270.836
					C2713.684,1391.991,2721.7,1383.976,2731.588,1383.976z"/>
			</g>
			<g>
				<path style="fill:#FF8DF2;" d="M2804.64,1401.579c-0.164-9.77-8.131-17.603-17.901-17.603h-25.304v251.981h47.136
					L2804.64,1401.579z"/>
			</g>
			<g>
				<path style="fill:#CC008E;" d="M2750.774,1662.335c-3.232,0-5.852-2.62-5.852-5.853v-272.507h-13.334
					c-9.888,0-17.903,8.016-17.903,17.903v270.836c0,9.888,8.015,17.903,17.903,17.903h59.692c10.005,0,18.069-8.2,17.901-18.203
					l-0.169-10.08H2750.774z"/>
			</g>
			<g style="opacity:0.5;">
				<path style="fill:#FFFFFF;" d="M2807.49,1571.162l-1.924-114.358l-0.94-55.232c-0.134-9.757-8.101-17.59-17.903-17.59h-55.142
					c-9.891,0-17.903,8.011-17.903,17.903v4.699h63.736l0.85,51.562c-11.905,9.847-20.186,31.51-20.186,56.575
					c0,26.497,9.22,49.1,22.156,58.052l1.97,117.849h9.085c9.981,0,18.082-8.191,17.903-18.217L2807.49,1571.162z"/>
			</g>
			<g>
				<path style="fill:#260063;" d="M2791.279,1706.619h-59.692c-18.694,0-33.904-15.21-33.904-33.904V1401.88
					c0-18.696,15.21-33.906,33.904-33.906h55.151c18.384,0,33.591,14.956,33.899,33.337l4.543,270.835
					c0.151,9.165-3.303,17.81-9.729,24.343C2809.028,1703.02,2800.442,1706.619,2791.279,1706.619z M2731.587,1399.976
					c-1.05,0-1.902,0.854-1.902,1.904v270.835c0,1.05,0.852,1.902,1.902,1.902h59.692c0.53,0,0.989-0.19,1.357-0.566
					c0.374-0.378,0.557-0.84,0.547-1.37l-4.543-270.833c-0.017-1.033-0.869-1.872-1.902-1.872H2731.587z"/>
			</g>
		</g>
	</g>
</g>
</svg>
